#!OML:ASF E:\pregnant2\Project 1\Capture day 1\Session 1\pregnant2.ASF
:FULLY-SPECIFIED
:DEGREES
700
root 1.44896 17.1614 24.6798 -147.902 34.407 -180.319
lowerback -18.598 -2.62044 -5.06279
upperback -16.065 0.0591678 1.22233
thorax -7.11581 1.84272 4.00927
lowerneck -7.79396 -12.4493 -16.8755
upperneck 28.3857 -17.1783 13.2846
head 13.6466 -7.45834 5.47555
rclavicle -2.34255e-014 -6.26172e-015
rhumerus -66.7454 25.0883 -104.372
rradius 53.4009
rwrist 2.47416
rhand 6.41119 -10.9305
rfingers 7.12502
rthumb 31.7151 -38.1932
lclavicle -2.34255e-014 -6.26172e-015
lhumerus -66.0854 -28.3218 114.005
lradius 58.7182
lwrist 12.5631
lhand 15.1114 29.8343
lfingers 7.12502
lthumb 39.9565 55.0734
rfemur -46.7245 11.525 12.8498
rtibia 30.1584
rfoot -17.2831 -24.3222
rtoes 6.53998
lfemur -42.6367 -11.0205 -20.7869
ltibia 26.6721
lfoot -12.8298 17.0666
ltoes -8.29343
701
root 1.45444 17.1644 24.6931 -147.858 34.5783 -180.217
lowerback -18.5803 -2.57871 -4.93237
upperback -16.0769 0.0928252 1.21619
thorax -7.14086 1.84611 3.93286
lowerneck -7.76961 -12.4732 -16.9024
upperneck 28.4805 -17.2084 13.2566
head 13.6887 -7.47446 5.46763
rclavicle 1.18308e-013 1.83876e-015
rhumerus -66.6908 25.2699 -104.516
rradius 53.1356
rwrist 2.52471
rhand 6.67687 -10.8163
rfingers 7.12502
rthumb 31.9681 -38.0287
lclavicle 1.18308e-013 1.83876e-015
lhumerus -65.9657 -28.0836 113.761
lradius 58.6979
lwrist 12.6751
lhand 15.3433 30.021
lfingers 7.12502
lthumb 40.1747 55.1942
rfemur -46.7072 12.0163 12.674
rtibia 29.9443
rfoot -17.2596 -24.5838
rtoes 6.763
lfemur -42.6579 -11.059 -20.615
ltibia 26.6975
lfoot -12.8044 17.338
ltoes -8.19161
702
root 1.46033 17.1667 24.7054 -147.798 34.7591 -180.1
lowerback -18.5541 -2.54605 -4.8347
upperback -16.0971 0.121347 1.25097
thorax -7.18075 1.85422 3.91833
lowerneck -7.80063 -12.4993 -16.9149
upperneck 28.6337 -17.2183 13.1507
head 13.7531 -7.48507 5.42858
rclavicle 2.96003e-014 3.50855e-014
rhumerus -66.6486 25.4754 -104.608
rradius 52.8878
rwrist 2.57383
rhand 6.90914 -10.6717
rfingers 7.12502
rthumb 32.1892 -37.8396
lclavicle 2.96003e-014 3.50855e-014
lhumerus -65.8881 -27.8621 113.626
lradius 58.6322
lwrist 12.7331
lhand 15.381 29.9851
lfingers 7.12502
lthumb 40.2101 55.1474
rfemur -46.6873 12.4098 12.5736
rtibia 29.7627
rfoot -17.2646 -24.6989
rtoes 6.97828
lfemur -42.6788 -11.0582 -20.4519
ltibia 26.7306
lfoot -12.7924 17.5861
ltoes -8.10826
703
root 1.46637 17.1689 24.7184 -147.782 34.9299 -180.042
lowerback -18.5505 -2.51898 -4.74951
upperback -16.1001 0.141268 1.2521
thorax -7.18727 1.85415 3.87413
lowerneck -7.75873 -12.5054 -16.9572
upperneck 28.7151 -17.2218 13.1312
head 13.7834 -7.49164 5.43233
rclavicle -3.8763e-014 -3.33958e-014
rhumerus -66.5947 25.6707 -104.712
rradius 52.6785
rwrist 2.53757
rhand 7.06378 -10.5154
rfingers 7.12502
rthumb 32.3364 -37.6533
lclavicle -3.8763e-014 -3.33958e-014
lhumerus -65.8444 -27.6747 113.469
lradius 58.6494
lwrist 12.8333
lhand 15.3702 30.07
lfingers 7.12502
lthumb 40.2 55.2354
rfemur -46.6782 12.6674 12.5017
rtibia 29.62
rfoot -17.1917 -24.7371
rtoes 6.99191
lfemur -42.6903 -11.0382 -20.3596
ltibia 26.7569
lfoot -12.771 17.7923
ltoes -8.18162
704
root 1.47387 17.1712 24.7302 -147.835 35.1057 -180.024
lowerback -18.5611 -2.50022 -4.69084
upperback -16.0569 0.142082 1.25085
thorax -7.13028 1.83845 3.84208
lowerneck -7.76331 -12.5057 -16.996
upperneck 28.7748 -17.2141 13.1128
head 13.8115 -7.49339 5.43444
rclavicle 5.53243e-014 1.04362e-015
rhumerus -66.4741 25.8944 -104.794
rradius 52.5206
rwrist 2.45866
rhand 7.30994 -10.5123
rfingers 7.12502
rthumb 32.5707 -37.6021
lclavicle 5.53243e-014 1.04362e-015
lhumerus -65.7343 -27.4618 113.289
lradius 58.6588
lwrist 12.916
lhand 15.3423 30.143
lfingers 7.12502
lthumb 40.1737 55.3164
rfemur -46.6164 12.8641 12.4514
rtibia 29.5169
rfoot -17.2015 -24.7112
rtoes 7.15233
lfemur -42.6231 -11.0186 -20.3173
ltibia 26.7655
lfoot -12.7845 17.9701
ltoes -8.04821
705
root 1.48139 17.1722 24.7426 -147.915 35.3019 -180.033
lowerback -18.5317 -2.45211 -4.6518
upperback -16.0222 0.181445 1.20346
thorax -7.10762 1.84246 3.77461
lowerneck -7.74407 -12.5215 -16.9838
upperneck 28.8251 -17.2372 13.0863
head 13.8295 -7.50406 5.42005
rclavicle -3.42904e-015 -3.52843e-015
rhumerus -66.377 26.0062 -104.858
rradius 52.4364
rwrist 2.34312
rhand 7.43793 -10.5605
rfingers 7.12502
rthumb 32.6924 -37.6251
lclavicle -3.42904e-015 -3.52843e-015
lhumerus -65.734 -27.4017 113.199
lradius 58.6983
lwrist 13.0215
lhand 15.3136 30.2187
lfingers 7.12502
lthumb 40.1468 55.4003
rfemur -46.5699 12.9947 12.4166
rtibia 29.4595
rfoot -17.1631 -24.6308
rtoes 7.238
lfemur -42.5339 -10.9412 -20.3395
ltibia 26.7536
lfoot -12.7872 18.0973
ltoes -7.9801
706
root 1.48896 17.1731 24.7556 -147.978 35.4837 -180.072
lowerback -18.5044 -2.44408 -4.67347
upperback -16.0101 0.183094 1.19438
thorax -7.10799 1.83993 3.77753
lowerneck -7.7027 -12.5349 -17.0093
upperneck 28.8601 -17.2504 13.0532
head 13.8378 -7.51734 5.41101
rclavicle 1.09729e-013 3.26504e-014
rhumerus -66.3624 26.2021 -104.953
rradius 52.4368
rwrist 2.2514
rhand 7.3947 -10.5033
rfingers 7.12502
rthumb 32.6513 -37.5765
lclavicle 1.09729e-013 3.26504e-014
lhumerus -65.7411 -27.304 113.148
lradius 58.7674
lwrist 13.1064
lhand 14.9445 30.2243
lfingers 7.12502
lthumb 39.7994 55.5106
rfemur -46.5847 13.0777 12.3788
rtibia 29.4356
rfoot -16.9786 -24.6251
rtoes 6.93621
lfemur -42.4781 -10.9052 -20.3581
ltibia 26.7266
lfoot -12.7582 18.228
ltoes -8.06564
707
root 1.49675 17.1737 24.7679 -148.072 35.6458 -180.131
lowerback -18.4979 -2.4548 -4.66452
upperback -15.9646 0.148728 1.19424
thorax -7.05404 1.81069 3.7703
lowerneck -7.72305 -12.516 -17.0574
upperneck 28.8906 -17.2122 13.0397
head 13.852 -7.50796 5.42048
rclavicle 2.39908e-014 2.16675e-014
rhumerus -66.3277 26.4481 -105.036
rradius 52.5175
rwrist 2.23215
rhand 7.41045 -10.5426
rfingers 7.12502
rthumb 32.6663 -37.6126
lclavicle 2.39908e-014 2.16675e-014
lhumerus -65.696 -27.134 113.034
lradius 58.8555
lwrist 13.0923
lhand 14.7516 30.2378
lfingers 7.12502
lthumb 39.6178 55.578
rfemur -46.5745 13.0777 12.3762
rtibia 29.4455
rfoot -16.8642 -24.5023
rtoes 6.76957
lfemur -42.3923 -10.8259 -20.4275
ltibia 26.693
lfoot -12.75 18.3063
ltoes -8.16784
708
root 1.50473 17.1744 24.7809 -148.179 35.8185 -180.223
lowerback -18.4656 -2.46977 -4.71251
upperback -15.9247 0.114693 1.18574
thorax -7.02086 1.78736 3.78546
lowerneck -7.72195 -12.5049 -17.0829
upperneck 28.8834 -17.1943 13.039
head 13.848 -7.50563 5.42705
rclavicle 2.9563e-014 -6.75868e-015
rhumerus -66.2509 26.6482 -105.068
rradius 52.5823
rwrist 2.36903
rhand 7.54457 -10.4715
rfingers 7.12502
rthumb 32.7939 -37.515
lclavicle 2.9563e-014 -6.75868e-015
lhumerus -65.7075 -27.0357 112.987
lradius 58.9779
lwrist 13.0882
lhand 14.5228 30.2662
lfingers 7.12502
lthumb 39.4023 55.6698
rfemur -46.5756 12.9941 12.3917
rtibia 29.4774
rfoot -16.7631 -24.3037
rtoes 6.69568
lfemur -42.3168 -10.7772 -20.5103
ltibia 26.6579
lfoot -12.7298 18.3995
ltoes -8.15037
709
root 1.51251 17.1747 24.7945 -148.283 35.9678 -180.323
lowerback -18.451 -2.46103 -4.71831
upperback -15.8832 0.107866 1.125
thorax -6.97811 1.77084 3.72362
lowerneck -7.69251 -12.5188 -17.0705
upperneck 28.8467 -17.228 13.0573
head 13.8329 -7.52082 5.42545
rclavicle -1.29955e-014 1.99282e-014
rhumerus -66.1364 26.7345 -105.1
rradius 52.6167
rwrist 2.69732
rhand 7.44885 -10.351
rfingers 7.12502
rthumb 32.7028 -37.4134
lclavicle -1.29955e-014 1.99282e-014
lhumerus -65.7126 -27.0405 112.891
lradius 59.0873
lwrist 13.0061
lhand 14.5684 30.3195
lfingers 7.12502
lthumb 39.4453 55.7105
rfemur -46.5813 12.7852 12.4783
rtibia 29.5204
rfoot -16.5635 -24.0255
rtoes 6.33344
lfemur -42.2494 -10.7155 -20.6027
ltibia 26.6223
lfoot -12.6938 18.4596
ltoes -8.21308
710
root 1.52144 17.1745 24.8077 -148.363 36.1118 -180.385
lowerback -18.422 -2.4846 -4.75338
upperback -15.8589 0.0666255 1.13888
thorax -6.9609 1.74714 3.75432
lowerneck -7.62695 -12.4914 -17.099
upperneck 28.8086 -17.1833 13.0336
head 13.7935 -7.5134 5.43037
rclavicle 2.84697e-014 5.99833e-014
rhumerus -66.1761 26.9494 -105.16
rradius 52.8269
rwrist 3.04946
rhand 7.47009 -10.3865
rfingers 7.12502
rthumb 32.723 -37.4448
lclavicle 2.84697e-014 5.99833e-014
lhumerus -65.7395 -26.9811 112.843
lradius 59.2085
lwrist 12.8389
lhand 14.4894 30.2662
lfingers 7.12502
lthumb 39.3708 55.679
rfemur -46.5913 12.6134 12.5859
rtibia 29.572
rfoot -16.433 -23.7556
rtoes 6.08086
lfemur -42.1826 -10.6023 -20.6801
ltibia 26.5887
lfoot -12.6939 18.4702
ltoes -8.25685
711
root 1.53035 17.1755 24.82 -148.457 36.2381 -180.456
lowerback -18.4064 -2.48602 -4.73498
upperback -15.8076 0.041226 1.10239
thorax -6.90541 1.71874 3.70333
lowerneck -7.64266 -12.4867 -17.0698
upperneck 28.7857 -17.1842 13.0381
head 13.7838 -7.51229 5.42528
rclavicle -3.01904e-015 0
rhumerus -66.144 27.123 -105.245
rradius 53.0518
rwrist 3.42321
rhand 7.39216 -10.4154
rfingers 7.12502
rthumb 32.6489 -37.4891
lclavicle -3.01904e-015 0
lhumerus -65.7738 -26.9968 112.781
lradius 59.3299
lwrist 12.7424
lhand 14.2689 30.1962
lfingers 7.12502
lthumb 39.163 55.6693
rfemur -46.5744 12.4164 12.7005
rtibia 29.6175
rfoot -16.3041 -23.465
rtoes 5.84769
lfemur -42.1067 -10.5122 -20.7587
ltibia 26.5654
lfoot -12.6889 18.4946
ltoes -8.34289
712
root 1.53884 17.1759 24.833 -148.575 36.3552 -180.546
lowerback -18.3481 -2.51083 -4.78114
upperback -15.7777 -0.00460465 1.10526
thorax -6.89623 1.69194 3.72761
lowerneck -7.56306 -12.4676 -17.0854
upperneck 28.725 -17.1563 13.019
head 13.734 -7.51151 5.42642
rclavicle -1.61761e-014 2.40778e-014
rhumerus -66.2524 27.371 -105.361
rradius 53.4017
rwrist 3.8089
rhand 7.32478 -10.5998
rfingers 7.12502
rthumb 32.5848 -37.6867
lclavicle -1.61761e-014 2.40778e-014
lhumerus -65.8401 -27.022 112.785
lradius 59.4351
lwrist 12.6487
lhand 14.1895 30.1839
lfingers 7.12502
lthumb 39.0882 55.6786
rfemur -46.5393 12.2465 12.7803
rtibia 29.644
rfoot -16.2131 -23.1852
rtoes 5.70615
lfemur -42.0328 -10.421 -20.8587
ltibia 26.5616
lfoot -12.6872 18.5146
ltoes -8.52801
713
root 1.54833 17.1759 24.8464 -148.665 36.4803 -180.584
lowerback -18.2999 -2.52777 -4.77544
upperback -15.7396 -0.0482002 1.11364
thorax -6.8719 1.66011 3.72942
lowerneck -7.55881 -12.4523 -17.079
upperneck 28.7201 -17.1289 12.9867
head 13.7207 -7.50503 5.41706
rclavicle 2.32019e-014 1.77664e-014
rhumerus -66.3889 27.6172 -105.477
rradius 53.7705
rwrist 4.22013
rhand 7.18549 -10.6084
rfingers 7.12502
rthumb 32.4522 -37.7226
lclavicle 2.32019e-014 1.77664e-014
lhumerus -65.9046 -27.0957 112.764
lradius 59.5713
lwrist 12.73
lhand 14.0423 30.1564
lfingers 7.12502
lthumb 38.9494 55.6909
rfemur -46.5038 12.203 12.8403
rtibia 29.6496
rfoot -16.1529 -23.0194
rtoes 5.59708
lfemur -41.964 -10.3199 -20.9069
ltibia 26.5683
lfoot -12.6877 18.5648
ltoes -8.50426
